<svg width="160" height="50" viewBox="0 0 160 50" fill="none" xmlns="http://www.w3.org/2000/svg">
  <path d="M10 35V15H20C22 15 23.5 15.5 24.5 16.5C25.5 17.5 26 19 26 21C26 23 25.5 24.5 24.5 25.5C23.5 26.5 22 27 20 27H15V35H10Z" fill="#E4C590"/>
  <path d="M30 35V15H50V20H35V23H48V28H35V30H50V35H30Z" fill="#E4C590"/>
  <path d="M55 35V15H60V30H75V35H55Z" fill="#E4C590"/>
  <path d="M80 35V15H85V35H80Z" fill="#E4C590"/>
  <path d="M90 35V15H95V30H110V35H90Z" fill="#E4C590"/>
  <path d="M115 35V15H120V35H115Z" fill="#E4C590"/>
  <path d="M125 35V15H145C147 15 148.5 15.5 149.5 16.5C150.5 17.5 151 19 151 21C151 23 150.5 24.5 149.5 25.5C148.5 26.5 147 27 145 27H130V35H125ZM130 22H145C146 22 146.5 21.5 146.5 20.5C146.5 19.5 146 19 145 19H130V22Z" fill="#E4C590"/>
  <path d="M32.5132 42.597C29.684 44.1297 26.4436 45 23 45C11.9543 45 3 36.0457 3 25C3 13.9543 11.9543 5 23 5C26.0521 5 28.9446 5.68368 31.5326 6.90625C31.3663 7.11885 31.209 7.34319 31.0619 7.57929C30.37 8.68974 29.8253 10.0318 29.47 11.4633C27.5111 10.5253 25.3169 10 23 10C14.7157 10 8 16.7157 8 25C8 33.2843 14.7157 40 23 40C27.2915 40 31.162 38.1978 33.8961 35.309C33.5961 36.4152 33.1892 37.6031 32.6373 38.9318C32.2262 39.809 32.1122 40.4488 32.1122 41.4602C32.1122 41.8663 32.2596 42.247 32.5132 42.597Z" fill="#E4C590"/>
</svg>
