<svg width="223" height="53" viewBox="0 0 223 53" fill="none" xmlns="http://www.w3.org/2000/svg">
<g filter="url(#filter0_d_1_84)">
<path d="M55 44.46V36.76H57.651C58.2597 36.76 58.7583 36.8627 59.147 37.068C59.543 37.2733 59.8363 37.552 60.027 37.904C60.2177 38.2487 60.313 38.6337 60.313 39.059C60.313 39.5357 60.1847 39.9683 59.928 40.357C59.6787 40.7457 59.2863 41.0243 58.751 41.193L60.39 44.46H59.037L57.541 41.358H56.166V44.46H55ZM56.166 40.478H57.585C58.113 40.478 58.498 40.3497 58.74 40.093C58.9893 39.8363 59.114 39.5027 59.114 39.092C59.114 38.6813 58.993 38.355 58.751 38.113C58.509 37.8637 58.1167 37.739 57.574 37.739H56.166V40.478Z" fill="#E4C590"/>
<path d="M65.6524 44.46V36.76H70.5474V37.706H66.8184V40.104H70.2174V41.028H66.8184V43.514H70.5474V44.46H65.6524Z" fill="#E4C590"/>
<path d="M78.4376 44.592C77.8729 44.592 77.3779 44.493 76.9526 44.295C76.5272 44.097 76.1936 43.8147 75.9516 43.448C75.7169 43.0813 75.5959 42.645 75.5886 42.139H76.8206C76.8279 42.5497 76.9709 42.898 77.2496 43.184C77.5282 43.47 77.9206 43.613 78.4266 43.613C78.8739 43.613 79.2222 43.5067 79.4716 43.294C79.7282 43.074 79.8566 42.7953 79.8566 42.458C79.8566 42.1867 79.7942 41.9667 79.6696 41.798C79.5522 41.6293 79.3872 41.49 79.1746 41.38C78.9692 41.27 78.7309 41.171 78.4596 41.083C78.1882 40.995 77.9022 40.8997 77.6016 40.797C77.0076 40.599 76.5602 40.3423 76.2596 40.027C75.9662 39.7117 75.8196 39.2973 75.8196 38.784C75.8122 38.3513 75.9112 37.9737 76.1166 37.651C76.3292 37.3283 76.6226 37.079 76.9966 36.903C77.3779 36.7197 77.8216 36.628 78.3276 36.628C78.8262 36.628 79.2626 36.7197 79.6366 36.903C80.0179 37.0863 80.3149 37.343 80.5276 37.673C80.7402 37.9957 80.8502 38.3733 80.8576 38.806H79.6256C79.6256 38.608 79.5742 38.421 79.4716 38.245C79.3689 38.0617 79.2186 37.9113 79.0206 37.794C78.8226 37.6767 78.5806 37.618 78.2946 37.618C77.9279 37.6107 77.6236 37.7023 77.3816 37.893C77.1469 38.0837 77.0296 38.3477 77.0296 38.685C77.0296 38.9857 77.1176 39.2167 77.2936 39.378C77.4696 39.5393 77.7116 39.675 78.0196 39.785C78.3276 39.8877 78.6796 40.0087 79.0756 40.148C79.4569 40.2727 79.7979 40.423 80.0986 40.599C80.3992 40.775 80.6376 41.006 80.8136 41.292C80.9969 41.578 81.0886 41.941 81.0886 42.381C81.0886 42.7697 80.9896 43.1327 80.7916 43.47C80.5936 43.8 80.2966 44.0713 79.9006 44.284C79.5046 44.4893 79.0169 44.592 78.4376 44.592Z" fill="#E4C590"/>
<path d="M87.9877 44.46V37.706H85.7107V36.76H91.4197V37.706H89.1537V44.46H87.9877Z" fill="#E4C590"/>
<path d="M95.138 44.46L97.976 36.76H99.252L102.068 44.46H100.836L100.176 42.579H97.03L96.37 44.46H95.138ZM97.36 41.655H99.846L98.603 38.146L97.36 41.655Z" fill="#E4C590"/>
<path d="M109.651 44.592C109.101 44.592 108.602 44.4857 108.155 44.273C107.715 44.053 107.363 43.7193 107.099 43.272C106.842 42.8247 106.714 42.2563 106.714 41.567V36.76H107.88V41.578C107.88 42.2527 108.041 42.7477 108.364 43.063C108.686 43.3783 109.123 43.536 109.673 43.536C110.215 43.536 110.648 43.3783 110.971 43.063C111.293 42.7477 111.455 42.2527 111.455 41.578V36.76H112.621V41.567C112.621 42.2563 112.485 42.8247 112.214 43.272C111.95 43.7193 111.59 44.053 111.136 44.273C110.688 44.4857 110.193 44.592 109.651 44.592Z" fill="#E4C590"/>
<path d="M118.076 44.46V36.76H120.727C121.336 36.76 121.835 36.8627 122.223 37.068C122.619 37.2733 122.913 37.552 123.103 37.904C123.294 38.2487 123.389 38.6337 123.389 39.059C123.389 39.5357 123.261 39.9683 123.004 40.357C122.755 40.7457 122.363 41.0243 121.827 41.193L123.466 44.46H122.113L120.617 41.358H119.242V44.46H118.076ZM119.242 40.478H120.661C121.189 40.478 121.574 40.3497 121.816 40.093C122.066 39.8363 122.19 39.5027 122.19 39.092C122.19 38.6813 122.069 38.355 121.827 38.113C121.585 37.8637 121.193 37.739 120.65 37.739H119.242V40.478Z" fill="#E4C590"/>
<path d="M128.234 44.46L131.072 36.76H132.348L135.164 44.46H133.932L133.272 42.579H130.126L129.466 44.46H128.234ZM130.456 41.655H132.942L131.699 38.146L130.456 41.655Z" fill="#E4C590"/>
<path d="M140.198 44.46V36.76H141.364L145.225 42.557V36.76H146.391V44.46H145.225L141.364 38.663V44.46H140.198Z" fill="#E4C590"/>
<path d="M153.717 44.46V37.706H151.44V36.76H157.149V37.706H154.883V44.46H153.717Z" fill="#E4C590"/>
<path fill-rule="evenodd" clip-rule="evenodd" d="M33.5132 42.597C30.684 44.1297 27.4436 45 24 45C12.9543 45 4 36.0457 4 25C4 13.9543 12.9543 5 24 5C27.0521 5 29.9446 5.68368 32.5326 6.90625C32.3663 7.11885 32.209 7.34319 32.0619 7.57929C31.37 8.68974 30.8253 10.0318 30.47 11.4633C28.5111 10.5253 26.3169 10 24 10C15.7157 10 9 16.7157 9 25C9 33.2843 15.7157 40 24 40C28.2915 40 32.162 38.1978 34.8961 35.309C34.5961 36.4152 34.1892 37.6031 33.6373 38.9318C33.2262 39.809 33.1122 40.4488 33.1122 41.4602C33.1122 41.8663 33.2596 42.247 33.5132 42.597ZM30.0138 14.6134C29.8567 18.2765 31.0306 21.8663 34.1625 23.2555C35.135 24.128 35.7379 25.2124 35.7379 26.6199C35.7379 26.9224 35.7379 27.2186 35.7371 27.5099C34.5832 32.9324 29.7666 37 24 37C17.3726 37 12 31.6274 12 25C12 18.3726 17.3726 13 24 13C26.1914 13 28.2456 13.5874 30.0138 14.6134Z" fill="#E4C590"/>
<path d="M42.7607 22.8781C47.7982 20.5576 47.5779 13.151 44.8104 8.53905C41.9996 3.85445 37.7943 3.78631 34.9427 8.53905C32.1901 13.126 31.9363 20.5491 36.9923 22.8781C37.9183 23.7408 38.6263 25.4349 38.6263 26.8266C38.6263 31.0162 38.8838 34.3087 36.7001 39.1394C36.3086 40.0068 36.1257 40.6631 36.1257 41.2062C36.1257 43.2981 37.8081 45 39.8765 45C41.9449 45 43.6273 43.2981 43.6273 41.2062C43.6273 40.6631 43.4445 40.0068 43.053 39.1394C40.8389 34.2417 41.1268 30.7222 41.1268 26.8266C41.1268 25.4349 41.8348 23.7408 42.7607 22.8781Z" fill="#E4C590"/>
</g>
<g filter="url(#filter1_d_1_84)">
<path d="M51.9176 9.45455H55.3622L57.642 15.7188H57.7983L62.1378 9.45455H65.5824L58.7216 18.858L57.8622 24H54.8082L55.6676 18.858L51.9176 9.45455ZM78.5138 16.9261C78.2487 18.4792 77.735 19.7978 76.9727 20.8821C76.2151 21.9664 75.2894 22.7902 74.1957 23.3537C73.1067 23.9171 71.9324 24.1989 70.6729 24.1989C69.3519 24.1989 68.2132 23.8982 67.2567 23.2969C66.305 22.6955 65.6161 21.8267 65.19 20.6903C64.7638 19.5492 64.6834 18.1738 64.9485 16.5639C65.2042 15.0062 65.7132 13.6851 66.4755 12.6009C67.2378 11.5118 68.1682 10.6832 69.2667 10.1151C70.3652 9.54214 71.5465 9.25568 72.8107 9.25568C74.1223 9.25568 75.2539 9.55871 76.2056 10.1648C77.1621 10.7708 77.851 11.6468 78.2724 12.7926C78.6985 13.9337 78.779 15.3116 78.5138 16.9261ZM75.4528 16.5639C75.6185 15.5649 75.6114 14.7268 75.4315 14.0497C75.2563 13.3679 74.9343 12.8518 74.4656 12.5014C73.9968 12.151 73.4049 11.9759 72.69 11.9759C71.9135 11.9759 71.2009 12.17 70.5522 12.5582C69.9083 12.9465 69.3638 13.5099 68.9187 14.2486C68.4783 14.9825 68.1729 15.875 68.0025 16.9261C67.832 17.9299 67.8368 18.768 68.0167 19.4403C68.2013 20.1127 68.5304 20.6217 69.0039 20.9673C69.4821 21.3082 70.0763 21.4787 70.7866 21.4787C71.5584 21.4787 72.2638 21.2893 72.9031 20.9105C73.547 20.527 74.0891 19.9706 74.5295 19.2415C74.9698 18.5076 75.2776 17.6151 75.4528 16.5639ZM91.0121 9.45455H94.0874L92.5249 18.9006C92.3497 19.9612 91.9448 20.8892 91.3104 21.6847C90.6759 22.4801 89.8686 23.1004 88.8885 23.5455C87.9084 23.9858 86.8146 24.206 85.6072 24.206C84.3999 24.206 83.3819 23.9858 82.5533 23.5455C81.7247 23.1004 81.1257 22.4801 80.7564 21.6847C80.3871 20.8892 80.29 19.9612 80.4652 18.9006L82.0277 9.45455H85.103L83.576 18.6378C83.4908 19.1918 83.5334 19.6842 83.7038 20.1151C83.879 20.5459 84.1679 20.8845 84.5703 21.1307C84.9728 21.3769 85.4699 21.5 86.0618 21.5C86.6584 21.5 87.1982 21.3769 87.6811 21.1307C88.1688 20.8845 88.5689 20.5459 88.8814 20.1151C89.1986 19.6842 89.3999 19.1918 89.4851 18.6378L91.0121 9.45455ZM103.798 13.6804C103.822 13.0885 103.649 12.6316 103.279 12.3097C102.915 11.9877 102.363 11.8267 101.625 11.8267C101.123 11.8267 100.687 11.8977 100.318 12.0398C99.9485 12.1771 99.6526 12.3688 99.43 12.6151C99.2122 12.8565 99.0773 13.1359 99.0252 13.4531C98.9731 13.7135 98.9897 13.9408 99.0749 14.1349C99.1649 14.3291 99.3046 14.4972 99.494 14.6392C99.6881 14.7765 99.9177 14.8973 100.183 15.0014C100.448 15.1009 100.73 15.1861 101.028 15.2571L102.278 15.5696C102.889 15.7116 103.438 15.901 103.926 16.1378C104.418 16.3745 104.83 16.6657 105.162 17.0114C105.498 17.357 105.734 17.7642 105.872 18.233C106.009 18.7017 106.028 19.2391 105.929 19.8452C105.777 20.7353 105.424 21.5071 104.87 22.1605C104.316 22.8092 103.59 23.3134 102.69 23.6733C101.79 24.0284 100.749 24.206 99.565 24.206C98.3907 24.206 97.3988 24.026 96.5891 23.6662C95.7795 23.3063 95.19 22.7737 94.8207 22.0682C94.4561 21.358 94.3472 20.4796 94.494 19.4332H97.4698C97.4177 19.9209 97.4888 20.3281 97.6829 20.6548C97.8817 20.9768 98.1777 21.2206 98.5707 21.3864C98.9637 21.5473 99.4253 21.6278 99.9556 21.6278C100.481 21.6278 100.948 21.5521 101.355 21.4006C101.767 21.2491 102.1 21.0384 102.356 20.7685C102.612 20.4986 102.768 20.1884 102.825 19.8381C102.882 19.5114 102.832 19.2367 102.676 19.0142C102.52 18.7917 102.269 18.6023 101.923 18.446C101.582 18.285 101.158 18.143 100.652 18.0199L99.1317 17.6222C97.9575 17.3239 97.0697 16.8575 96.4684 16.223C95.8671 15.5885 95.6516 14.7339 95.8221 13.6591C95.9736 12.7784 96.3406 12.009 96.9229 11.3509C97.5101 10.688 98.2487 10.1742 99.1388 9.80966C100.034 9.44034 101.011 9.25568 102.072 9.25568C103.152 9.25568 104.063 9.44271 104.806 9.81676C105.55 10.1861 106.092 10.7022 106.433 11.3651C106.774 12.0279 106.878 12.7997 106.745 13.6804H103.798ZM116.903 13.6804C116.927 13.0885 116.754 12.6316 116.385 12.3097C116.02 11.9877 115.469 11.8267 114.73 11.8267C114.228 11.8267 113.793 11.8977 113.423 12.0398C113.054 12.1771 112.758 12.3688 112.536 12.6151C112.318 12.8565 112.183 13.1359 112.131 13.4531C112.079 13.7135 112.095 13.9408 112.18 14.1349C112.27 14.3291 112.41 14.4972 112.599 14.6392C112.794 14.7765 113.023 14.8973 113.288 15.0014C113.554 15.1009 113.835 15.1861 114.134 15.2571L115.384 15.5696C115.994 15.7116 116.544 15.901 117.031 16.1378C117.524 16.3745 117.936 16.6657 118.267 17.0114C118.603 17.357 118.84 17.7642 118.977 18.233C119.115 18.7017 119.134 19.2391 119.034 19.8452C118.883 20.7353 118.53 21.5071 117.976 22.1605C117.422 22.8092 116.695 23.3134 115.795 23.6733C114.896 24.0284 113.854 24.206 112.67 24.206C111.496 24.206 110.504 24.026 109.695 23.6662C108.885 23.3063 108.295 22.7737 107.926 22.0682C107.562 21.358 107.453 20.4796 107.599 19.4332H110.575C110.523 19.9209 110.594 20.3281 110.788 20.6548C110.987 20.9768 111.283 21.2206 111.676 21.3864C112.069 21.5473 112.531 21.6278 113.061 21.6278C113.587 21.6278 114.053 21.5521 114.46 21.4006C114.872 21.2491 115.206 21.0384 115.462 20.7685C115.717 20.4986 115.874 20.1884 115.93 19.8381C115.987 19.5114 115.938 19.2367 115.781 19.0142C115.625 18.7917 115.374 18.6023 115.028 18.446C114.688 18.285 114.264 18.143 113.757 18.0199L112.237 17.6222C111.063 17.3239 110.175 16.8575 109.574 16.223C108.973 15.5885 108.757 14.7339 108.928 13.6591C109.079 12.7784 109.446 12.009 110.028 11.3509C110.616 10.688 111.354 10.1742 112.244 9.80966C113.139 9.44034 114.117 9.25568 115.178 9.25568C116.257 9.25568 117.169 9.44271 117.912 9.81676C118.655 10.1861 119.197 10.7022 119.538 11.3651C119.879 12.0279 119.983 12.7997 119.851 13.6804H116.903ZM134.959 16.9261C134.694 18.4792 134.18 19.7978 133.418 20.8821C132.66 21.9664 131.735 22.7902 130.641 23.3537C129.552 23.9171 128.378 24.1989 127.118 24.1989C125.797 24.1989 124.658 23.8982 123.702 23.2969C122.75 22.6955 122.061 21.8267 121.635 20.6903C121.209 19.5492 121.129 18.1738 121.394 16.5639C121.65 15.0062 122.158 13.6851 122.921 12.6009C123.683 11.5118 124.614 10.6832 125.712 10.1151C126.81 9.54214 127.992 9.25568 129.256 9.25568C130.568 9.25568 131.699 9.55871 132.651 10.1648C133.607 10.7708 134.296 11.6468 134.718 12.7926C135.144 13.9337 135.224 15.3116 134.959 16.9261ZM131.898 16.5639C132.064 15.5649 132.057 14.7268 131.877 14.0497C131.702 13.3679 131.38 12.8518 130.911 12.5014C130.442 12.151 129.85 11.9759 129.135 11.9759C128.359 11.9759 127.646 12.17 126.998 12.5582C126.354 12.9465 125.809 13.5099 125.364 14.2486C124.924 14.9825 124.618 15.875 124.448 16.9261C124.277 17.9299 124.282 18.768 124.462 19.4403C124.647 20.1127 124.976 20.6217 125.449 20.9673C125.927 21.3082 126.522 21.4787 127.232 21.4787C128.004 21.4787 128.709 21.2893 129.348 20.9105C129.992 20.527 130.534 19.9706 130.975 19.2415C131.415 18.5076 131.723 17.6151 131.898 16.5639ZM147.457 9.45455H150.533L148.97 18.9006C148.795 19.9612 148.39 20.8892 147.756 21.6847C147.121 22.4801 146.314 23.1004 145.334 23.5455C144.354 23.9858 143.26 24.206 142.053 24.206C140.845 24.206 139.827 23.9858 138.999 23.5455C138.17 23.1004 137.571 22.4801 137.202 21.6847C136.832 20.8892 136.735 19.9612 136.911 18.9006L138.473 9.45455H141.548L140.021 18.6378C139.936 19.1918 139.979 19.6842 140.149 20.1151C140.324 20.5459 140.613 20.8845 141.016 21.1307C141.418 21.3769 141.915 21.5 142.507 21.5C143.104 21.5 143.643 21.3769 144.126 21.1307C144.614 20.8845 145.014 20.5459 145.327 20.1151C145.644 19.6842 145.845 19.1918 145.93 18.6378L147.457 9.45455ZM150.648 24L153.063 9.45455H162.694L162.267 11.9901H155.712L155.144 15.456H161.06L160.634 17.9915H154.718L153.723 24H150.648Z" fill="white"/>
</g>
<defs>
<filter id="filter0_d_1_84" x="-3" y="0" width="168" height="58" filterUnits="userSpaceOnUse" color-interpolation-filters="sRGB">
<feFlood flood-opacity="0" result="BackgroundImageFix"/>
<feColorMatrix in="SourceAlpha" type="matrix" values="0 0 0 0 0 0 0 0 0 0 0 0 0 0 0 0 0 0 127 0" result="hardAlpha"/>
<feOffset dy="4"/>
<feGaussianBlur stdDeviation="2"/>
<feComposite in2="hardAlpha" operator="out"/>
<feColorMatrix type="matrix" values="0 0 0 0 0 0 0 0 0 0 0 0 0 0 0 0 0 0 0.25 0"/>
<feBlend mode="normal" in2="BackgroundImageFix" result="effect1_dropShadow_1_84"/>
<feBlend mode="normal" in="SourceGraphic" in2="effect1_dropShadow_1_84" result="shape"/>
</filter>
<filter id="filter1_d_1_84" x="47.9176" y="9.25568" width="118.776" height="22.9503" filterUnits="userSpaceOnUse" color-interpolation-filters="sRGB">
<feFlood flood-opacity="0" result="BackgroundImageFix"/>
<feColorMatrix in="SourceAlpha" type="matrix" values="0 0 0 0 0 0 0 0 0 0 0 0 0 0 0 0 0 0 127 0" result="hardAlpha"/>
<feOffset dy="4"/>
<feGaussianBlur stdDeviation="2"/>
<feComposite in2="hardAlpha" operator="out"/>
<feColorMatrix type="matrix" values="0 0 0 0 0 0 0 0 0 0 0 0 0 0 0 0 0 0 0.25 0"/>
<feBlend mode="normal" in2="BackgroundImageFix" result="effect1_dropShadow_1_84"/>
<feBlend mode="normal" in="SourceGraphic" in2="effect1_dropShadow_1_84" result="shape"/>
</filter>
</defs>
</svg>
